<svg width="33" height="24" viewBox="0 0 33 24" fill="none" xmlns="http://www.w3.org/2000/svg">
<path fill-rule="evenodd" clip-rule="evenodd" d="M21.2636 22.239C17.2396 22.239 12.5049 20.637 8.52889 17.657C2.18489 12.898 0.528891 6.686 4.75822 3.514C6.00756 2.578 7.52756 2.008 9.28089 1.818L10.2942 1.708L14.0236 8.23L10.2942 9.628C11.1582 10.856 12.4676 12.125 14.1862 13.414C15.8249 14.643 17.5156 15.618 19.2129 16.31L20.9649 13.737L29.6089 14.663L29.6596 15.49C29.7862 17.549 28.9996 19.276 27.3849 20.486C25.8062 21.67 23.6609 22.239 21.2636 22.239ZM8.68622 3.972C7.91956 4.165 7.23422 4.486 6.64356 4.93C3.57689 7.229 5.30489 12.41 10.4142 16.243C15.5262 20.076 22.4329 21.369 25.4996 19.071C26.5209 18.305 26.8889 17.295 26.9796 16.401L22.4902 15.92L21.6289 17.214C21.3036 17.702 20.7422 18.061 20.0476 18.224C19.3529 18.389 18.5822 18.33 17.9369 18.067C16.0169 17.284 14.1196 16.194 12.2996 14.829C10.3929 13.399 8.92756 11.97 7.94222 10.581C7.59956 10.096 7.53422 9.542 7.75556 9.02C7.97689 8.501 8.45556 8.082 9.10489 7.838L10.5796 7.285L8.68622 3.972Z" fill="#92989F"/>
</svg>
