<svg width="29" height="28" viewBox="0 0 29 28" fill="none" xmlns="http://www.w3.org/2000/svg">
<path d="M3.79167 27.125C2.98958 27.125 2.30295 26.8394 1.73177 26.2682C1.16059 25.697 0.875 25.0104 0.875 24.2083V3.79167C0.875 2.98958 1.16059 2.30295 1.73177 1.73177C2.30295 1.16059 2.98958 0.875 3.79167 0.875H24.2083C24.4028 0.875 24.5851 0.893229 24.7552 0.929688C24.9253 0.966146 25.0955 1.02083 25.2656 1.09375L22.5677 3.79167H3.79167V24.2083H24.2083V14.5104L27.125 11.5938V24.2083C27.125 25.0104 26.8394 25.697 26.2682 26.2682C25.697 26.8394 25.0104 27.125 24.2083 27.125H3.79167ZM13.3073 21.2917L5.06771 13.0521L7.10938 11.0104L13.3073 17.2083L26.6875 3.82812L28.7656 5.83333L13.3073 21.2917Z" fill="#1A2E05"/>
</svg>
