<svg width="17" height="15" viewBox="0 0 17 15" fill="none" xmlns="http://www.w3.org/2000/svg">
<path d="M3.41889 6.55643C4.77889 8.83869 6.97 10.7016 9.64278 11.8709L11.7206 10.0968C11.9756 9.87901 12.3533 9.80643 12.6839 9.9032C13.7417 10.2016 14.8844 10.3629 16.0556 10.3629C16.575 10.3629 17 10.7258 17 11.1693V13.9838C17 14.4274 16.575 14.7903 16.0556 14.7903C7.18722 14.7903 0 8.6532 0 1.08062C0 0.637073 0.425 0.27417 0.944444 0.27417H4.25C4.76944 0.27417 5.19444 0.637073 5.19444 1.08062C5.19444 2.08869 5.38333 3.05643 5.73278 3.95965C5.83667 4.24191 5.76111 4.55643 5.49667 4.78223L3.41889 6.55643Z" fill="white"/>
</svg>
