<svg width="38" height="32" viewBox="0 0 38 32" fill="none" xmlns="http://www.w3.org/2000/svg">
<path d="M18.716 10L23.9993 15.2667V15C23.9993 13.6739 23.4726 12.4021 22.5349 11.4645C21.5972 10.5268 20.3254 10 18.9993 10H18.716ZM11.5493 11.3333L14.1327 13.9167C14.0493 14.2667 13.9993 14.6167 13.9993 15C13.9993 16.3261 14.5261 17.5979 15.4638 18.5355C16.4015 19.4732 17.6733 20 18.9993 20C19.366 20 19.7327 19.95 20.0827 19.8667L22.666 22.45C21.5493 23 20.316 23.3333 18.9993 23.3333C16.7892 23.3333 14.6696 22.4554 13.1068 20.8926C11.544 19.3298 10.666 17.2101 10.666 15C10.666 13.6833 10.9993 12.45 11.5493 11.3333ZM2.33268 2.11667L6.13268 5.91667L6.88268 6.66667C4.13268 8.83333 1.96602 11.6667 0.666016 15C3.54935 22.3167 10.666 27.5 18.9993 27.5C21.5827 27.5 24.0493 27 26.2993 26.1L27.016 26.8L31.8827 31.6667L33.9994 29.55L4.44935 0M18.9993 6.66667C21.2095 6.66667 23.3291 7.54464 24.8919 9.10744C26.4547 10.6702 27.3327 12.7899 27.3327 15C27.3327 16.0667 27.116 17.1 26.7327 18.0333L31.616 22.9167C34.116 20.8333 36.116 18.1 37.3327 15C34.4494 7.68333 27.3327 2.5 18.9993 2.5C16.666 2.5 14.4327 2.91667 12.3327 3.66667L15.9493 7.25C16.8993 6.88333 17.916 6.66667 18.9993 6.66667Z" fill="#2D5128"/>
</svg>
